<mxfile host="Electron" modified="2023-05-01T13:53:37.937Z" agent="Mozilla/5.0 (Windows NT 10.0; Win64; x64) AppleWebKit/537.36 (KHTML, like Gecko) draw.io/21.1.2 Chrome/106.0.5249.199 Electron/21.4.3 Safari/537.36" etag="0asy4x0MEU8cY-0Bzz4w" version="21.1.2" type="device">
  <diagram name="Page-1" id="aP_IwqKEydv0Dx7owajn">
    <mxGraphModel dx="1235" dy="787" grid="1" gridSize="10" guides="1" tooltips="1" connect="1" arrows="1" fold="1" page="1" pageScale="1" pageWidth="827" pageHeight="1169" math="0" shadow="0">
      <root>
        <mxCell id="0" />
        <mxCell id="1" parent="0" />
        <mxCell id="P8GzUTAWi7tiertQChFq-1" style="edgeStyle=orthogonalEdgeStyle;rounded=0;orthogonalLoop=1;jettySize=auto;html=1;endArrow=none;endFill=0;strokeWidth=2;fontFamily=Times New Roman;fontSize=14;" parent="1" source="P8GzUTAWi7tiertQChFq-2" target="P8GzUTAWi7tiertQChFq-4" edge="1">
          <mxGeometry relative="1" as="geometry" />
        </mxCell>
        <mxCell id="P8GzUTAWi7tiertQChFq-2" value="начало&lt;br style=&quot;font-size: 14px;&quot;&gt;(имя пользователя, исходный код)" style="rounded=1;whiteSpace=wrap;html=1;arcSize=50;strokeWidth=2;fontFamily=Times New Roman;fontSize=14;aspect=fixed;" parent="1" vertex="1">
          <mxGeometry x="95" y="40" width="150" height="75" as="geometry" />
        </mxCell>
        <mxCell id="P8GzUTAWi7tiertQChFq-3" style="edgeStyle=orthogonalEdgeStyle;rounded=0;orthogonalLoop=1;jettySize=auto;html=1;exitX=0.5;exitY=1;exitDx=0;exitDy=0;endArrow=none;endFill=0;strokeWidth=2;fontFamily=Times New Roman;fontSize=14;" parent="1" source="P8GzUTAWi7tiertQChFq-4" target="P8GzUTAWi7tiertQChFq-6" edge="1">
          <mxGeometry relative="1" as="geometry" />
        </mxCell>
        <mxCell id="P8GzUTAWi7tiertQChFq-4" value="получение &lt;br&gt;пользователя&amp;nbsp;&lt;br style=&quot;font-size: 14px;&quot;&gt;по имени" style="rounded=0;whiteSpace=wrap;html=1;strokeWidth=2;fontFamily=Times New Roman;fontSize=14;aspect=fixed;" parent="1" vertex="1">
          <mxGeometry x="95" y="180" width="150" height="75" as="geometry" />
        </mxCell>
        <mxCell id="P8GzUTAWi7tiertQChFq-5" style="edgeStyle=orthogonalEdgeStyle;rounded=0;orthogonalLoop=1;jettySize=auto;html=1;exitX=0.5;exitY=1;exitDx=0;exitDy=0;endArrow=none;endFill=0;strokeWidth=2;fontFamily=Times New Roman;fontSize=14;" parent="1" source="P8GzUTAWi7tiertQChFq-6" target="P8GzUTAWi7tiertQChFq-8" edge="1">
          <mxGeometry relative="1" as="geometry" />
        </mxCell>
        <mxCell id="P8GzUTAWi7tiertQChFq-6" value="построение графа&lt;br style=&quot;font-size: 14px;&quot;&gt;алгоритма" style="shape=process;whiteSpace=wrap;html=1;backgroundOutline=1;strokeWidth=2;fontFamily=Times New Roman;fontSize=14;aspect=fixed;" parent="1" vertex="1">
          <mxGeometry x="95" y="320" width="150" height="75" as="geometry" />
        </mxCell>
        <mxCell id="P8GzUTAWi7tiertQChFq-7" style="edgeStyle=orthogonalEdgeStyle;rounded=0;orthogonalLoop=1;jettySize=auto;html=1;exitX=0.5;exitY=1;exitDx=0;exitDy=0;endArrow=none;endFill=0;strokeWidth=2;fontFamily=Times New Roman;fontSize=14;" parent="1" source="P8GzUTAWi7tiertQChFq-8" target="P8GzUTAWi7tiertQChFq-9" edge="1">
          <mxGeometry relative="1" as="geometry" />
        </mxCell>
        <mxCell id="P8GzUTAWi7tiertQChFq-8" value="сохранение исходного &lt;br style=&quot;font-size: 14px;&quot;&gt;кода и графа" style="rounded=0;whiteSpace=wrap;html=1;strokeWidth=2;fontFamily=Times New Roman;fontSize=14;aspect=fixed;" parent="1" vertex="1">
          <mxGeometry x="95" y="455" width="150" height="75" as="geometry" />
        </mxCell>
        <mxCell id="P8GzUTAWi7tiertQChFq-9" value="конец" style="rounded=1;whiteSpace=wrap;html=1;arcSize=50;strokeWidth=2;fontFamily=Times New Roman;fontSize=14;aspect=fixed;" parent="1" vertex="1">
          <mxGeometry x="95" y="590" width="150" height="75" as="geometry" />
        </mxCell>
        <mxCell id="P8GzUTAWi7tiertQChFq-10" style="edgeStyle=orthogonalEdgeStyle;rounded=0;orthogonalLoop=1;jettySize=auto;html=1;exitX=0.5;exitY=1;exitDx=0;exitDy=0;endArrow=none;endFill=0;strokeWidth=2;fontFamily=Times New Roman;fontSize=14;" parent="1" source="P8GzUTAWi7tiertQChFq-11" target="P8GzUTAWi7tiertQChFq-13" edge="1">
          <mxGeometry relative="1" as="geometry" />
        </mxCell>
        <mxCell id="P8GzUTAWi7tiertQChFq-11" value="построение графа&lt;br style=&quot;font-size: 14px;&quot;&gt;алгоритма&lt;br style=&quot;font-size: 14px;&quot;&gt;(исходный код)" style="rounded=1;whiteSpace=wrap;html=1;arcSize=50;strokeWidth=2;fontFamily=Times New Roman;fontSize=14;aspect=fixed;" parent="1" vertex="1">
          <mxGeometry x="306" y="40" width="150" height="75" as="geometry" />
        </mxCell>
        <mxCell id="P8GzUTAWi7tiertQChFq-12" style="edgeStyle=orthogonalEdgeStyle;rounded=0;orthogonalLoop=1;jettySize=auto;html=1;exitX=0.5;exitY=1;exitDx=0;exitDy=0;endArrow=none;endFill=0;strokeWidth=2;fontFamily=Times New Roman;fontSize=14;" parent="1" source="P8GzUTAWi7tiertQChFq-13" target="P8GzUTAWi7tiertQChFq-15" edge="1">
          <mxGeometry relative="1" as="geometry" />
        </mxCell>
        <mxCell id="P8GzUTAWi7tiertQChFq-13" value="определение списка лексем&lt;br style=&quot;font-size: 14px;&quot;&gt;и токенов" style="rounded=0;whiteSpace=wrap;html=1;strokeWidth=2;fontFamily=Times New Roman;fontSize=14;aspect=fixed;" parent="1" vertex="1">
          <mxGeometry x="306" y="158.5" width="150" height="75" as="geometry" />
        </mxCell>
        <mxCell id="P8GzUTAWi7tiertQChFq-14" style="edgeStyle=orthogonalEdgeStyle;rounded=0;orthogonalLoop=1;jettySize=auto;html=1;exitX=0.5;exitY=1;exitDx=0;exitDy=0;endArrow=none;endFill=0;strokeWidth=2;fontFamily=Times New Roman;fontSize=14;" parent="1" source="P8GzUTAWi7tiertQChFq-15" target="P8GzUTAWi7tiertQChFq-18" edge="1">
          <mxGeometry relative="1" as="geometry" />
        </mxCell>
        <mxCell id="P8GzUTAWi7tiertQChFq-15" value="построение дерева&lt;br style=&quot;font-size: 14px;&quot;&gt;синтаксического разбора" style="rounded=0;whiteSpace=wrap;html=1;strokeWidth=2;fontFamily=Times New Roman;fontSize=14;aspect=fixed;" parent="1" vertex="1">
          <mxGeometry x="306" y="295" width="150" height="75" as="geometry" />
        </mxCell>
        <mxCell id="P8GzUTAWi7tiertQChFq-16" style="edgeStyle=orthogonalEdgeStyle;rounded=0;orthogonalLoop=1;jettySize=auto;html=1;exitX=0.5;exitY=1;exitDx=0;exitDy=0;endArrow=none;endFill=0;strokeWidth=2;fontFamily=Times New Roman;fontSize=14;" parent="1" source="P8GzUTAWi7tiertQChFq-18" target="P8GzUTAWi7tiertQChFq-22" edge="1">
          <mxGeometry relative="1" as="geometry" />
        </mxCell>
        <mxCell id="P8GzUTAWi7tiertQChFq-17" style="edgeStyle=orthogonalEdgeStyle;rounded=0;orthogonalLoop=1;jettySize=auto;html=1;exitX=1;exitY=0.5;exitDx=0;exitDy=0;entryX=0.5;entryY=0;entryDx=0;entryDy=0;endArrow=none;endFill=0;strokeWidth=2;fontFamily=Times New Roman;fontSize=14;" parent="1" source="P8GzUTAWi7tiertQChFq-18" target="P8GzUTAWi7tiertQChFq-20" edge="1">
          <mxGeometry relative="1" as="geometry" />
        </mxCell>
        <mxCell id="P8GzUTAWi7tiertQChFq-18" value="есть ли ошибки?" style="rhombus;whiteSpace=wrap;html=1;strokeWidth=2;fontFamily=Times New Roman;fontSize=14;aspect=fixed;" parent="1" vertex="1">
          <mxGeometry x="306" y="420" width="150" height="100.01" as="geometry" />
        </mxCell>
        <mxCell id="P8GzUTAWi7tiertQChFq-19" style="edgeStyle=orthogonalEdgeStyle;rounded=0;orthogonalLoop=1;jettySize=auto;html=1;exitX=0.5;exitY=1;exitDx=0;exitDy=0;entryX=0.5;entryY=0;entryDx=0;entryDy=0;endArrow=none;endFill=0;strokeWidth=2;fontFamily=Times New Roman;fontSize=14;" parent="1" source="P8GzUTAWi7tiertQChFq-20" target="P8GzUTAWi7tiertQChFq-37" edge="1">
          <mxGeometry relative="1" as="geometry" />
        </mxCell>
        <mxCell id="P8GzUTAWi7tiertQChFq-20" value="возврат ошибки&lt;br style=&quot;font-size: 14px;&quot;&gt;с указанием номера&lt;br style=&quot;font-size: 14px;&quot;&gt;строки и символа" style="rounded=0;whiteSpace=wrap;html=1;strokeWidth=2;fontFamily=Times New Roman;fontSize=14;aspect=fixed;" parent="1" vertex="1">
          <mxGeometry x="516" y="536.51" width="150" height="75" as="geometry" />
        </mxCell>
        <mxCell id="P8GzUTAWi7tiertQChFq-21" style="edgeStyle=orthogonalEdgeStyle;rounded=0;orthogonalLoop=1;jettySize=auto;html=1;exitX=0.5;exitY=1;exitDx=0;exitDy=0;endArrow=none;endFill=0;strokeWidth=2;fontFamily=Times New Roman;fontSize=14;" parent="1" source="P8GzUTAWi7tiertQChFq-22" target="P8GzUTAWi7tiertQChFq-28" edge="1">
          <mxGeometry relative="1" as="geometry" />
        </mxCell>
        <mxCell id="P8GzUTAWi7tiertQChFq-22" value="построение &lt;br style=&quot;font-size: 14px;&quot;&gt;абстрактно&lt;br style=&quot;font-size: 14px;&quot;&gt;синтаксического дерева" style="rounded=0;whiteSpace=wrap;html=1;strokeWidth=2;fontFamily=Times New Roman;fontSize=14;aspect=fixed;" parent="1" vertex="1">
          <mxGeometry x="306" y="570" width="150" height="75" as="geometry" />
        </mxCell>
        <mxCell id="P8GzUTAWi7tiertQChFq-23" style="edgeStyle=orthogonalEdgeStyle;rounded=0;orthogonalLoop=1;jettySize=auto;html=1;exitX=0.5;exitY=1;exitDx=0;exitDy=0;entryX=0.5;entryY=0;entryDx=0;entryDy=0;endArrow=none;endFill=0;strokeWidth=2;fontFamily=Times New Roman;fontSize=14;" parent="1" source="P8GzUTAWi7tiertQChFq-24" target="P8GzUTAWi7tiertQChFq-34" edge="1">
          <mxGeometry relative="1" as="geometry" />
        </mxCell>
        <mxCell id="P8GzUTAWi7tiertQChFq-24" value="А" style="ellipse;whiteSpace=wrap;html=1;aspect=fixed;strokeWidth=2;fontFamily=Times New Roman;fontSize=14;" parent="1" vertex="1">
          <mxGeometry x="550" y="40.5" width="60" height="60" as="geometry" />
        </mxCell>
        <mxCell id="P8GzUTAWi7tiertQChFq-25" style="edgeStyle=orthogonalEdgeStyle;rounded=0;orthogonalLoop=1;jettySize=auto;html=1;exitX=0.5;exitY=1;exitDx=0;exitDy=0;strokeWidth=2;endSize=8;fontFamily=Times New Roman;fontSize=14;" parent="1" source="P8GzUTAWi7tiertQChFq-26" edge="1">
          <mxGeometry relative="1" as="geometry">
            <mxPoint x="580" y="270" as="targetPoint" />
            <Array as="points">
              <mxPoint x="740" y="270" />
              <mxPoint x="580" y="270" />
            </Array>
          </mxGeometry>
        </mxCell>
        <mxCell id="P8GzUTAWi7tiertQChFq-26" value="Б" style="ellipse;whiteSpace=wrap;html=1;aspect=fixed;strokeWidth=2;fontFamily=Times New Roman;fontSize=14;" parent="1" vertex="1">
          <mxGeometry x="710" y="40.5" width="60" height="60" as="geometry" />
        </mxCell>
        <mxCell id="P8GzUTAWi7tiertQChFq-27" style="edgeStyle=orthogonalEdgeStyle;rounded=0;orthogonalLoop=1;jettySize=auto;html=1;exitX=0.5;exitY=1;exitDx=0;exitDy=0;entryX=0.5;entryY=0;entryDx=0;entryDy=0;endArrow=none;endFill=0;strokeWidth=2;fontFamily=Times New Roman;fontSize=14;" parent="1" source="P8GzUTAWi7tiertQChFq-28" target="P8GzUTAWi7tiertQChFq-30" edge="1">
          <mxGeometry relative="1" as="geometry" />
        </mxCell>
        <mxCell id="P8GzUTAWi7tiertQChFq-28" value="первичный проход&lt;br style=&quot;font-size: 14px;&quot;&gt;с поиском всех объявлений&lt;br style=&quot;font-size: 14px;&quot;&gt;функций" style="rounded=0;whiteSpace=wrap;html=1;strokeWidth=2;fontFamily=Times New Roman;fontSize=14;aspect=fixed;" parent="1" vertex="1">
          <mxGeometry x="306" y="682" width="150" height="75" as="geometry" />
        </mxCell>
        <mxCell id="P8GzUTAWi7tiertQChFq-29" style="edgeStyle=orthogonalEdgeStyle;rounded=0;orthogonalLoop=1;jettySize=auto;html=1;exitX=0.5;exitY=1;exitDx=0;exitDy=0;endArrow=none;endFill=0;strokeWidth=2;fontFamily=Times New Roman;fontSize=14;" parent="1" source="P8GzUTAWi7tiertQChFq-30" target="P8GzUTAWi7tiertQChFq-32" edge="1">
          <mxGeometry relative="1" as="geometry" />
        </mxCell>
        <mxCell id="P8GzUTAWi7tiertQChFq-30" value="построение дерева&lt;br style=&quot;font-size: 14px;&quot;&gt;конструкций&lt;br style=&quot;font-size: 14px;&quot;&gt;алгоритма" style="rounded=0;whiteSpace=wrap;html=1;strokeWidth=2;fontFamily=Times New Roman;fontSize=14;aspect=fixed;" parent="1" vertex="1">
          <mxGeometry x="306" y="800" width="150" height="75" as="geometry" />
        </mxCell>
        <mxCell id="P8GzUTAWi7tiertQChFq-31" style="edgeStyle=orthogonalEdgeStyle;rounded=0;orthogonalLoop=1;jettySize=auto;html=1;exitX=0.5;exitY=1;exitDx=0;exitDy=0;endArrow=none;endFill=0;strokeWidth=2;fontFamily=Times New Roman;fontSize=14;" parent="1" source="P8GzUTAWi7tiertQChFq-32" target="P8GzUTAWi7tiertQChFq-36" edge="1">
          <mxGeometry relative="1" as="geometry" />
        </mxCell>
        <mxCell id="P8GzUTAWi7tiertQChFq-32" value="построение графа" style="rounded=0;whiteSpace=wrap;html=1;strokeWidth=2;fontFamily=Times New Roman;fontSize=14;aspect=fixed;" parent="1" vertex="1">
          <mxGeometry x="306" y="920" width="150" height="75" as="geometry" />
        </mxCell>
        <mxCell id="P8GzUTAWi7tiertQChFq-33" style="edgeStyle=orthogonalEdgeStyle;rounded=0;orthogonalLoop=1;jettySize=auto;html=1;exitX=0.5;exitY=1;exitDx=0;exitDy=0;endArrow=none;endFill=0;strokeWidth=2;fontFamily=Times New Roman;fontSize=14;" parent="1" source="P8GzUTAWi7tiertQChFq-34" target="P8GzUTAWi7tiertQChFq-35" edge="1">
          <mxGeometry relative="1" as="geometry" />
        </mxCell>
        <mxCell id="P8GzUTAWi7tiertQChFq-34" value="возврат графа" style="rounded=0;whiteSpace=wrap;html=1;strokeWidth=2;fontFamily=Times New Roman;fontSize=14;aspect=fixed;" parent="1" vertex="1">
          <mxGeometry x="505" y="160" width="150" height="75" as="geometry" />
        </mxCell>
        <mxCell id="P8GzUTAWi7tiertQChFq-35" value="конец" style="rounded=1;whiteSpace=wrap;html=1;arcSize=50;strokeWidth=2;fontFamily=Times New Roman;fontSize=14;aspect=fixed;" parent="1" vertex="1">
          <mxGeometry x="505" y="303" width="150" height="75" as="geometry" />
        </mxCell>
        <mxCell id="P8GzUTAWi7tiertQChFq-36" value="А" style="ellipse;whiteSpace=wrap;html=1;aspect=fixed;strokeWidth=2;fontFamily=Times New Roman;fontSize=14;" parent="1" vertex="1">
          <mxGeometry x="351" y="1030" width="60" height="60" as="geometry" />
        </mxCell>
        <mxCell id="P8GzUTAWi7tiertQChFq-37" value="Б" style="ellipse;whiteSpace=wrap;html=1;aspect=fixed;strokeWidth=2;fontFamily=Times New Roman;fontSize=14;" parent="1" vertex="1">
          <mxGeometry x="561" y="641.51" width="60" height="60" as="geometry" />
        </mxCell>
        <mxCell id="P8GzUTAWi7tiertQChFq-38" value="&lt;font style=&quot;font-size: 14px;&quot;&gt;да&lt;/font&gt;" style="text;html=1;align=center;verticalAlign=middle;resizable=0;points=[];autosize=1;strokeColor=none;fillColor=none;fontFamily=Times New Roman;fontSize=14;" parent="1" vertex="1">
          <mxGeometry x="456" y="444.01" width="40" height="30" as="geometry" />
        </mxCell>
        <mxCell id="P8GzUTAWi7tiertQChFq-39" value="&lt;font style=&quot;font-size: 14px;&quot;&gt;нет&lt;/font&gt;" style="text;html=1;align=center;verticalAlign=middle;resizable=0;points=[];autosize=1;strokeColor=none;fillColor=none;fontFamily=Times New Roman;fontSize=14;" parent="1" vertex="1">
          <mxGeometry x="340" y="514.0099999999999" width="40" height="30" as="geometry" />
        </mxCell>
        <mxCell id="P8GzUTAWi7tiertQChFq-40" value="&lt;font style=&quot;font-size: 14px;&quot;&gt;1&lt;/font&gt;" style="text;html=1;align=center;verticalAlign=middle;resizable=0;points=[];autosize=1;strokeColor=none;fillColor=none;fontFamily=Times New Roman;fontSize=14;" parent="1" vertex="1">
          <mxGeometry x="61" y="51" width="30" height="30" as="geometry" />
        </mxCell>
        <mxCell id="P8GzUTAWi7tiertQChFq-41" value="&lt;font style=&quot;font-size: 14px;&quot;&gt;2&lt;/font&gt;" style="text;html=1;align=center;verticalAlign=middle;resizable=0;points=[];autosize=1;strokeColor=none;fillColor=none;fontFamily=Times New Roman;fontSize=14;" parent="1" vertex="1">
          <mxGeometry x="61" y="181" width="30" height="30" as="geometry" />
        </mxCell>
        <mxCell id="P8GzUTAWi7tiertQChFq-42" value="&lt;font style=&quot;font-size: 14px;&quot;&gt;3&lt;/font&gt;" style="text;html=1;align=center;verticalAlign=middle;resizable=0;points=[];autosize=1;strokeColor=none;fillColor=none;fontFamily=Times New Roman;fontSize=14;" parent="1" vertex="1">
          <mxGeometry x="61" y="321" width="30" height="30" as="geometry" />
        </mxCell>
        <mxCell id="P8GzUTAWi7tiertQChFq-43" value="&lt;font style=&quot;font-size: 14px;&quot;&gt;4&lt;/font&gt;" style="text;html=1;align=center;verticalAlign=middle;resizable=0;points=[];autosize=1;strokeColor=none;fillColor=none;fontFamily=Times New Roman;fontSize=14;" parent="1" vertex="1">
          <mxGeometry x="61" y="446" width="30" height="30" as="geometry" />
        </mxCell>
        <mxCell id="P8GzUTAWi7tiertQChFq-44" value="&lt;font style=&quot;font-size: 14px;&quot;&gt;5&lt;/font&gt;" style="text;html=1;align=center;verticalAlign=middle;resizable=0;points=[];autosize=1;strokeColor=none;fillColor=none;fontFamily=Times New Roman;fontSize=14;" parent="1" vertex="1">
          <mxGeometry x="61" y="601" width="30" height="30" as="geometry" />
        </mxCell>
        <mxCell id="P8GzUTAWi7tiertQChFq-45" value="&lt;font style=&quot;font-size: 14px;&quot;&gt;6&lt;/font&gt;" style="text;html=1;align=center;verticalAlign=middle;resizable=0;points=[];autosize=1;strokeColor=none;fillColor=none;fontFamily=Times New Roman;fontSize=14;" parent="1" vertex="1">
          <mxGeometry x="274" y="53" width="30" height="30" as="geometry" />
        </mxCell>
        <mxCell id="P8GzUTAWi7tiertQChFq-46" value="&lt;font style=&quot;font-size: 14px;&quot;&gt;7&lt;/font&gt;" style="text;html=1;align=center;verticalAlign=middle;resizable=0;points=[];autosize=1;strokeColor=none;fillColor=none;fontFamily=Times New Roman;fontSize=14;" parent="1" vertex="1">
          <mxGeometry x="274" y="156.5" width="30" height="30" as="geometry" />
        </mxCell>
        <mxCell id="P8GzUTAWi7tiertQChFq-47" value="&lt;font style=&quot;font-size: 14px;&quot;&gt;8&lt;/font&gt;" style="text;html=1;align=center;verticalAlign=middle;resizable=0;points=[];autosize=1;strokeColor=none;fillColor=none;fontFamily=Times New Roman;fontSize=14;" parent="1" vertex="1">
          <mxGeometry x="274" y="293" width="30" height="30" as="geometry" />
        </mxCell>
        <mxCell id="P8GzUTAWi7tiertQChFq-48" value="&lt;font style=&quot;font-size: 14px;&quot;&gt;9&lt;/font&gt;" style="text;html=1;align=center;verticalAlign=middle;resizable=0;points=[];autosize=1;strokeColor=none;fillColor=none;fontFamily=Times New Roman;fontSize=14;" parent="1" vertex="1">
          <mxGeometry x="274" y="451.34000000000003" width="30" height="30" as="geometry" />
        </mxCell>
        <mxCell id="P8GzUTAWi7tiertQChFq-49" value="&lt;font style=&quot;font-size: 14px;&quot;&gt;10&lt;/font&gt;" style="text;html=1;align=center;verticalAlign=middle;resizable=0;points=[];autosize=1;strokeColor=none;fillColor=none;fontFamily=Times New Roman;fontSize=14;" parent="1" vertex="1">
          <mxGeometry x="269" y="578" width="40" height="30" as="geometry" />
        </mxCell>
        <mxCell id="P8GzUTAWi7tiertQChFq-50" value="&lt;font style=&quot;font-size: 14px;&quot;&gt;11&lt;/font&gt;" style="text;html=1;align=center;verticalAlign=middle;resizable=0;points=[];autosize=1;strokeColor=none;fillColor=none;fontFamily=Times New Roman;fontSize=14;" parent="1" vertex="1">
          <mxGeometry x="270" y="680" width="40" height="30" as="geometry" />
        </mxCell>
        <mxCell id="P8GzUTAWi7tiertQChFq-51" value="&lt;font style=&quot;font-size: 14px;&quot;&gt;12&lt;/font&gt;" style="text;html=1;align=center;verticalAlign=middle;resizable=0;points=[];autosize=1;strokeColor=none;fillColor=none;fontFamily=Times New Roman;fontSize=14;" parent="1" vertex="1">
          <mxGeometry x="270" y="808" width="40" height="30" as="geometry" />
        </mxCell>
        <mxCell id="P8GzUTAWi7tiertQChFq-52" value="&lt;font style=&quot;font-size: 14px;&quot;&gt;13&lt;/font&gt;" style="text;html=1;align=center;verticalAlign=middle;resizable=0;points=[];autosize=1;strokeColor=none;fillColor=none;fontFamily=Times New Roman;fontSize=14;" parent="1" vertex="1">
          <mxGeometry x="270" y="928" width="40" height="30" as="geometry" />
        </mxCell>
        <mxCell id="P8GzUTAWi7tiertQChFq-53" value="&lt;font style=&quot;font-size: 14px;&quot;&gt;14&lt;/font&gt;" style="text;html=1;align=center;verticalAlign=middle;resizable=0;points=[];autosize=1;strokeColor=none;fillColor=none;fontFamily=Times New Roman;fontSize=14;" parent="1" vertex="1">
          <mxGeometry x="476" y="541" width="40" height="30" as="geometry" />
        </mxCell>
        <mxCell id="P8GzUTAWi7tiertQChFq-54" value="&lt;font style=&quot;font-size: 14px;&quot;&gt;15&lt;/font&gt;" style="text;html=1;align=center;verticalAlign=middle;resizable=0;points=[];autosize=1;strokeColor=none;fillColor=none;fontFamily=Times New Roman;fontSize=14;" parent="1" vertex="1">
          <mxGeometry x="470" y="159.5" width="40" height="30" as="geometry" />
        </mxCell>
        <mxCell id="P8GzUTAWi7tiertQChFq-55" value="&lt;font style=&quot;font-size: 14px;&quot;&gt;16&lt;/font&gt;" style="text;html=1;align=center;verticalAlign=middle;resizable=0;points=[];autosize=1;strokeColor=none;fillColor=none;fontFamily=Times New Roman;fontSize=14;" parent="1" vertex="1">
          <mxGeometry x="470" y="303" width="40" height="30" as="geometry" />
        </mxCell>
      </root>
    </mxGraphModel>
  </diagram>
</mxfile>
